<svg width="536" height="299" viewBox="0 0 536 299" fill="none" xmlns="http://www.w3.org/2000/svg">
<path d="M65.2539 130.467C75.7675 124.666 101.526 112.086 120.45 108.171C144.106 103.277 205.284 87.2343 225.404 74.9987" stroke="white" stroke-width="0.5"/>
<path d="M65.2539 131.554C73.411 126.207 92.7161 114.697 104.68 111.434C119.634 107.355 190.873 73.9111 201.749 66.5698" stroke="white" stroke-width="0.5"/>
<path d="M64.9844 130.467C71.9632 126.751 88.6943 117.361 99.7879 109.53C113.655 99.7419 166.948 64.6664 178.64 58.6846" stroke="white" stroke-width="0.5"/>
<path d="M64.9844 131.283C70.9662 127.657 86.4647 116.382 100.604 100.286C118.277 80.1649 140.845 57.0532 155.8 49.7118" stroke="white" stroke-width="0.5"/>
<path d="M64.4375 131.283C69.2411 129.289 81.2955 120.787 91.0839 102.733C103.32 80.1648 107.398 50.7994 133.501 41.5547" stroke="white" stroke-width="0.5"/>
<path d="M63.3516 131.283C69.696 129.47 82.5994 119.863 87.0071 98.9261C92.4451 73.0954 76.131 49.9837 109.303 32.31" stroke="white" stroke-width="0.5"/>
<path d="M64.4375 131.826C72.3227 128.382 87.0598 115.621 82.9269 92.1286C77.7607 62.7631 64.4375 40.739 86.4616 23.6091" stroke="white" stroke-width="0.5"/>
<path d="M89.1836 140.527C99.4253 134.183 125.619 120.461 148.458 116.328C177.008 111.162 231.117 94.3038 250.422 83.1558" stroke="white" stroke-width="0.5"/>
<path d="M89.457 140.799C96.0733 136.63 111.971 127.15 122.629 122.582C135.952 116.872 202.297 92.9443 226.224 75.5425" stroke="white" stroke-width="0.5"/>
<path d="M89.7305 140.527C97.9782 134.999 116.268 123.017 123.446 119.319C132.419 114.696 196.044 69.8326 203.658 67.1135" stroke="white" stroke-width="0.5"/>
<path d="M90 140.255C97.7945 134.727 115.069 121.548 121.813 113.065C130.242 102.461 160.151 67.3854 180.815 58.4127" stroke="white" stroke-width="0.5"/>
<path d="M89.457 139.983C94.4419 137.446 106.533 128.727 115.016 114.153C125.62 95.9352 123.173 70.1044 159.064 49.4398" stroke="white" stroke-width="0.5"/>
<path d="M89.457 140.255C94.6232 138.805 106.206 131.282 111.209 112.793C117.463 89.6814 100.333 56.5093 134.593 40.739" stroke="white" stroke-width="0.5"/>
<path d="M90 140.527C96.9788 137.083 110.284 125.246 107.674 105.452C104.411 80.7087 87.8248 51.6151 110.121 32.8538" stroke="white" stroke-width="0.5"/>
<path d="M114.199 149.5C126.888 142.34 158.574 127.041 183.806 123.125C215.347 118.231 268.912 98.9262 272.99 92.4005" stroke="white" stroke-width="0.5"/>
<path d="M114.199 150.044C119.819 145.875 133.722 136.775 144.38 133.73C157.704 129.923 238.459 94.8477 251.51 83.9716" stroke="white" stroke-width="0.5"/>
<path d="M114.746 149.5C124.988 142.974 146.939 129.107 152.812 125.845C160.154 121.766 214.262 83.9715 228.401 74.455" stroke="white" stroke-width="0.5"/>
<path d="M115.289 149.772C122.268 144.424 138.129 131.5 145.742 122.582C155.259 111.434 183.809 77.4458 204.745 67.1135" stroke="white" stroke-width="0.5"/>
<path d="M114.473 149.5C118.642 147.325 128.775 139.82 135.953 127.204C144.926 111.434 153.899 73.6392 179.457 57.8688" stroke="white" stroke-width="0.5"/>
<path d="M115.289 149.5C119.821 147.053 129.863 138.841 133.778 125.573C138.673 108.987 123.174 61.1317 159.609 50.5275" stroke="white" stroke-width="0.5"/>
<path d="M115.016 150.316C121.541 146.69 133.94 134.437 131.33 114.425C128.067 89.4095 109.306 62.7631 134.865 41.2828" stroke="white" stroke-width="0.5"/>
<path d="M140.027 159.017C143.562 156.932 153.351 149.881 164.227 138.352C177.822 123.941 212.897 82.3401 227.58 74.9987" stroke="white" stroke-width="0.5"/>
<path d="M138.398 159.017C143.202 156.751 154.549 148.847 161.51 135.361C170.211 118.503 178.64 84.2434 203.383 67.6573" stroke="white" stroke-width="0.5"/>
<path d="M138.941 159.017C143.745 156.298 154.44 147.651 158.79 134.817C164.228 118.775 147.642 80.4368 179.999 58.4127" stroke="white" stroke-width="0.5"/>
<path d="M140.301 159.832C146.464 155.391 158.192 142.431 155.799 126.116C152.808 105.724 134.319 74.7268 158.79 51.6151" stroke="white" stroke-width="0.5"/>
<path d="M139.484 159.288C146.191 154.032 165.533 142.267 189.243 137.264C218.88 131.011 273.532 116.872 296.372 101.373" stroke="white" stroke-width="0.5"/>
<path d="M153.082 164.183C159.427 161.645 171.082 151.621 166.949 131.826C161.783 107.083 90.5447 77.1739 133.233 40.739" stroke="white" stroke-width="0.5"/>
<path d="M165.047 168.533C170.485 164.999 184.271 159.34 192.781 155.482C213.174 146.237 271.089 141.615 317.856 109.53" stroke="white" stroke-width="0.5"/>
<path d="M165.047 168.533C171.21 164.183 184.95 153.796 190.606 147.053C197.675 138.624 231.935 102.461 249.065 83.4277" stroke="white" stroke-width="0.5"/>
<path d="M165.586 168.805C170.843 164.908 180.921 153.361 179.181 138.352C177.006 119.591 159.332 76.9021 181.356 59.2284" stroke="white" stroke-width="0.5"/>
<path d="M188.699 178.594C193.231 176.509 202.675 168.424 204.198 152.763C206.101 133.186 181.902 93.76 204.198 68.2012" stroke="white" stroke-width="0.5"/>
<path d="M200.391 183.76C205.285 180.769 218.499 171.307 232.203 157.385C249.333 139.983 274.62 107.627 294.197 100.829" stroke="white" stroke-width="0.5"/>
<path d="M201.75 184.032C202.747 185.301 208.493 182.291 223.502 160.104C242.263 132.37 236.825 108.987 272.173 92.1286" stroke="white" stroke-width="0.5"/>
<path d="M200.934 183.76C206.462 182.4 218.498 174.08 222.414 151.675C227.308 123.669 213.169 97.2948 247.973 83.9716" stroke="white" stroke-width="0.5"/>
<path d="M200.934 184.575C207.912 182.491 221.054 172.068 217.792 147.053C213.713 115.784 197.943 93.76 224.589 74.9987" stroke="white" stroke-width="0.5"/>
<path d="M225.953 191.917C235.742 185.663 266.194 172.068 286.859 172.068C309.427 172.068 390.182 157.113 409.759 143.518" stroke="white" stroke-width="0.5"/>
<path d="M225.953 192.189C235.288 186.751 260.104 174.678 284.684 169.893C315.409 163.911 375.771 144.062 388.279 134.817" stroke="white" stroke-width="0.5"/>
<path d="M226.492 192.189C236.099 186.207 259.284 173.264 275.163 169.349C295.012 164.455 355.374 133.186 364.075 126.388" stroke="white" stroke-width="0.5"/>
<path d="M227.582 192.189C240.724 184.757 268.802 168.261 275.981 161.736C284.953 153.579 326.555 128.564 341.781 117.144" stroke="white" stroke-width="0.5"/>
<path d="M226.223 193.276C235.377 186.116 255.425 169.675 262.386 161.192C271.087 150.588 305.074 114.968 318.398 110.074" stroke="white" stroke-width="0.5"/>
<path d="M225.953 193.004C229.216 194.001 239.113 189.143 252.6 161.736C269.458 127.476 270.001 114.425 295.832 101.373" stroke="white" stroke-width="0.5"/>
<path d="M227.582 192.461C234.651 187.204 248.736 172.612 248.519 156.298C248.247 135.905 243.624 104.364 271.086 92.1286" stroke="white" stroke-width="0.5"/>
<path d="M226.492 192.461C233.652 190.104 245.96 178.974 242.263 153.307C237.64 121.222 224.861 106.811 248.516 84.5153" stroke="white" stroke-width="0.5"/>
<path d="M275.707 213.125C278.607 209.59 290.444 200.781 314.589 193.82C344.77 185.119 424.166 186.751 454.075 159.56" stroke="white" stroke-width="0.5"/>
<path d="M277.066 211.766C280.601 208.05 291.858 198.877 319.483 191.917C354.015 183.216 415.193 167.717 432.867 151.403" stroke="white" stroke-width="0.5"/>
<path d="M275.164 211.766C279.243 208.14 293.001 198.986 315.406 191.373C343.412 181.856 393.985 156.841 410.572 142.702" stroke="white" stroke-width="0.5"/>
<path d="M275.707 210.95C283.139 206.146 301.157 194.853 313.773 188.11C329.544 179.681 378.486 142.159 385.828 134.273" stroke="white" stroke-width="0.5"/>
<path d="M275.164 211.766C287.128 202.521 312.306 182.128 317.309 174.515C323.563 164.998 354.832 129.651 363.26 126.116" stroke="white" stroke-width="0.5"/>
<path d="M275.164 211.222C280.693 208.865 294.632 198.062 306.161 173.699C320.572 143.246 316.221 137.536 340.964 116.872" stroke="white" stroke-width="0.5"/>
<path d="M276.25 213.125C283.501 207.597 298.002 191.754 298.002 172.612C298.002 148.684 293.38 122.582 317.579 108.715" stroke="white" stroke-width="0.5"/>
<path d="M277.066 211.222C283.411 207.597 295.556 195.234 293.381 174.787C290.662 149.228 271.628 127.476 297.459 101.917" stroke="white" stroke-width="0.5"/>
<path d="M313.504 227.536C319.939 226.448 332.483 217.802 331.178 191.917C329.546 159.56 306.434 142.431 339.878 117.144" stroke="white" stroke-width="0.5"/>
<path d="M312.961 228.08C319.487 225.723 336.099 214.426 340.423 186.207C345.589 152.491 345.589 141.343 363.263 125.573" stroke="white" stroke-width="0.5"/>
<path d="M311.871 226.992C320.663 222.189 339.66 208.285 345.315 191.101C352.385 169.621 373.049 140.527 386.916 133.458" stroke="white" stroke-width="0.5"/>
<path d="M28.0039 214.485C31.448 211.766 41.164 205.893 52.4751 204.152C66.6141 201.977 150.904 207.415 189.514 181.041" stroke="white" stroke-width="0.5"/>
<path d="M28.0039 214.213C31.8105 210.134 45.8407 201.76 71.5083 200.89C103.593 199.802 170.481 182.672 177.278 175.603" stroke="white" stroke-width="0.5"/>
<path d="M28.8242 214.485C32.6309 211.494 44.8665 204.424 63.3558 200.074C86.4676 194.636 150.093 182.4 164.775 170.708" stroke="white" stroke-width="0.5"/>
<path d="M28.2734 213.669C36.9743 209.5 56.9863 200.4 67.4274 197.355C80.4787 193.548 136.491 177.234 152.261 165.814" stroke="white" stroke-width="0.5"/>
<path d="M28.8242 214.213C38.2502 208.775 59.2773 197.029 67.9782 193.548C78.8543 189.198 119.096 171.524 139.76 160.92" stroke="white" stroke-width="0.5"/>
<path d="M28.2734 214.213C36.6118 208.775 55.5181 196.811 64.4365 192.461C75.5845 187.023 112.835 162.279 126.974 154.938" stroke="white" stroke-width="0.5"/>
<path d="M28.5508 213.669C34.6233 209.59 48.3997 200.128 54.9253 194.908C63.0824 188.382 86.1941 160.376 114.472 151.403" stroke="white" stroke-width="0.5"/>
<path d="M28.0039 213.941C33.3513 210.859 46.602 201.433 56.8256 188.382C69.605 172.068 82.1125 155.21 101.689 145.965" stroke="white" stroke-width="0.5"/>
<path d="M27.4648 214.757C33.0842 211.131 46.3893 199.639 54.6551 182.672C64.9874 161.464 71.5131 147.597 88.9148 141.343" stroke="white" stroke-width="0.5"/>
<path d="M28.8242 214.213C34.2623 209.862 45.6278 198.116 47.5855 185.935C50.0326 170.708 56.8302 142.431 76.6791 137.264" stroke="white" stroke-width="0.5"/>
<path d="M29.0938 213.669C34.0786 211.675 44.2115 201.596 44.8641 177.234C45.6798 146.781 50.846 139.44 64.4411 132.37" stroke="white" stroke-width="0.5"/>
<path d="M43.2305 219.923C49.4842 216.388 64.4932 209.319 74.4993 209.319C87.0068 209.319 171.84 214.213 213.713 189.47" stroke="white" stroke-width="0.5"/>
<path d="M42.9609 220.195C46.0425 217.838 55.3597 212.364 67.976 209.319C83.7463 205.512 158.791 186.207 176.465 174.787" stroke="white" stroke-width="0.5"/>
<path d="M43.2305 219.651C50.3906 215.935 67.2123 207.687 77.2183 204.424C89.7258 200.346 148.457 174.515 165.043 170.708" stroke="white" stroke-width="0.5"/>
<path d="M42.6875 219.923C50.3914 215.754 67.7025 206.545 75.3158 203.065C84.8324 198.714 135.134 171.252 152.264 165.814" stroke="white" stroke-width="0.5"/>
<path d="M42.6875 220.195C51.3884 215.028 70.8022 203.391 78.8505 198.171C88.9109 191.645 114.198 167.446 138.669 161.192" stroke="white" stroke-width="0.5"/>
<path d="M42.9609 220.195C48.399 216.751 61.5591 207.687 70.695 198.986C82.1149 188.11 109.305 163.367 126.435 156.026" stroke="white" stroke-width="0.5"/>
<path d="M43.5 220.195C49.7538 214.938 63.512 202.902 68.515 196.811C74.7688 189.198 98.6962 157.113 114.738 151.403" stroke="white" stroke-width="0.5"/>
<path d="M43.2305 220.195C47.5809 216.841 57.6957 207.524 63.3513 197.083C70.4207 184.032 79.3935 157.113 102.233 145.421" stroke="white" stroke-width="0.5"/>
<path d="M42.9609 219.923C48.3084 215.572 59.7101 202.956 62.5379 187.294C66.0727 167.717 72.3264 149.228 90.272 141.615" stroke="white" stroke-width="0.5"/>
<path d="M43.2305 219.923C48.3966 215.482 58.6202 202.358 58.1851 185.391C57.6413 164.183 60.6322 141.615 76.9464 137.536" stroke="white" stroke-width="0.5"/>
<path d="M64.7148 229.167C67.7964 225.905 77.9293 219.107 93.8084 218.019C113.657 216.66 182.992 215.029 213.989 189.47" stroke="white" stroke-width="0.5"/>
<path d="M64.7148 228.352C69.3372 225.089 82.0078 218.128 95.7117 216.388C112.842 214.213 187.887 195.995 200.938 184.847" stroke="white" stroke-width="0.5"/>
<path d="M64.7148 228.352C69.881 224.998 84.2374 217.258 100.334 213.125C120.455 207.959 181.089 188.926 189.246 180.225" stroke="white" stroke-width="0.5"/>
<path d="M64.168 227.808C72.4157 223.457 91.5214 213.723 101.962 209.59C115.014 204.424 148.186 188.654 176.192 174.787" stroke="white" stroke-width="0.5"/>
<path d="M64.7148 228.352C72.5094 223.457 90.6543 212.473 100.878 207.687C113.657 201.705 139.216 178.594 164.231 169.893" stroke="white" stroke-width="0.5"/>
<path d="M65.2539 228.08C70.7826 224.726 83.852 216.116 91.9004 208.503C101.961 198.986 124.257 175.603 151.447 165.542" stroke="white" stroke-width="0.5"/>
<path d="M63.8984 228.895C68.702 225.995 80.8108 217.258 90.8168 205.512C103.324 190.829 117.735 168.261 138.4 160.92" stroke="white" stroke-width="0.5"/>
<path d="M64.9844 229.167C69.8786 225.723 81.1354 216.225 87.0085 205.784C94.3498 192.732 101.691 162.551 125.891 155.754" stroke="white" stroke-width="0.5"/>
<path d="M64.7148 228.624C69.6997 225.18 80.5939 214.757 84.2918 200.618C88.9142 182.944 91.6332 158.473 114.473 150.588" stroke="white" stroke-width="0.5"/>
<path d="M64.9844 228.352C69.1535 226.992 79.1233 219.107 80.7547 197.627C82.7588 171.24 76.4043 162.823 101.147 145.965" stroke="white" stroke-width="0.5"/>
<path d="M87.0117 237.053C91.9966 233.427 105.555 226.122 119.912 225.905C137.857 225.633 213.446 218.291 238.733 199.53" stroke="white" stroke-width="0.5"/>
<path d="M86.4648 236.509C91.9935 233.337 106.151 226.612 118.549 225.089C134.048 223.186 210.452 207.415 225.951 193.82" stroke="white" stroke-width="0.5"/>
<path d="M86.4648 237.596C93.0811 234.062 109.903 225.905 124.259 221.554C142.205 216.116 208.821 195.995 214.259 189.742" stroke="white" stroke-width="0.5"/>
<path d="M87.0117 236.781C95.3501 232.521 114.474 223.077 124.262 219.379C136.498 214.757 179.73 197.627 202.298 184.847" stroke="white" stroke-width="0.5"/>
<path d="M86.7383 237.324C106.859 225.633 149.711 201.161 160.152 196.811C173.203 191.373 181.904 184.032 188.702 179.953" stroke="white" stroke-width="0.5"/>
<path d="M86.7383 236.781C95.3485 230.799 114.962 216.877 124.533 209.047C136.496 199.258 158.521 181.041 176.466 175.331" stroke="white" stroke-width="0.5"/>
<path d="M86.7383 236.781C93.6265 231.977 109.089 220.358 115.832 212.309C124.261 202.249 142.206 179.137 164.23 170.165" stroke="white" stroke-width="0.5"/>
<path d="M86.7383 237.053C90.8168 234.605 100.333 227.753 105.771 219.923C112.569 210.134 128.611 171.796 150.907 165.27" stroke="white" stroke-width="0.5"/>
<path d="M87.0117 237.596C89.8214 235.874 97.1809 229.439 104.142 217.476C112.842 202.521 120.728 167.717 138.129 160.648" stroke="white" stroke-width="0.5"/>
<path d="M109.309 246.025C113.568 242.219 126.546 234.877 144.384 234.877C165.049 234.877 248.523 248.744 287.949 218.835" stroke="white" stroke-width="0.5"/>
<path d="M108.758 245.753C114.015 241.766 128.715 233.735 145.465 233.518C171.295 233.182 253.682 232.43 275.162 213.669" stroke="white" stroke-width="0.5"/>
<path d="M109.309 245.482C115.381 241.312 132.094 232.756 150.366 231.886C173.206 230.799 231.121 217.476 250.426 204.152" stroke="white" stroke-width="0.5"/>
<path d="M109.578 245.753C117.191 238.956 142.37 230.201 150.635 228.896C160.968 227.264 224.865 211.222 238.188 197.899" stroke="white" stroke-width="0.5"/>
<path d="M108.488 245.21C119.636 239.59 144.299 229.48 150.905 226.176C160.15 221.554 210.18 207.415 226.494 194.092" stroke="white" stroke-width="0.5"/>
<path d="M108.488 245.482C122.355 238.14 150.851 223.022 153.896 221.282C157.703 219.107 195.225 197.627 213.715 188.926" stroke="white" stroke-width="0.5"/>
<path d="M109.031 245.482C116.373 240.678 132.415 230.038 137.853 225.905C144.65 220.738 163.14 197.083 200.934 185.935" stroke="white" stroke-width="0.5"/>
<path d="M109.578 245.482C118.823 237.959 139.27 220.575 147.101 211.222C156.889 199.53 178.098 182.4 188.158 180.769" stroke="white" stroke-width="0.5"/>
<path d="M109.031 245.482C114.379 242.491 127.031 232.757 134.862 217.747C144.65 198.986 153.895 181.584 176.191 175.603" stroke="white" stroke-width="0.5"/>
<path d="M109.031 245.482C113.744 244.122 125.128 235.747 132.959 213.125C142.747 184.847 148.729 176.962 163.684 170.708" stroke="white" stroke-width="0.5"/>
<path d="M109.031 245.482C114.107 243.76 125.073 234.605 128.336 211.766C132.415 183.216 134.046 175.059 151.448 166.086" stroke="white" stroke-width="0.5"/>
<path d="M137.852 256.901C144.105 251.373 164.498 241.621 196.039 246.841C235.465 253.367 287.942 250.376 312.141 228.624" stroke="white" stroke-width="0.5"/>
<path d="M138.398 256.901C142.296 252.732 156.507 244.231 182.175 243.578C214.259 242.763 265.921 246.025 300.996 224.273" stroke="white" stroke-width="0.5"/>
<path d="M137.852 256.901C144.377 253.004 162.867 244.611 184.619 242.219C211.809 239.228 257.761 238.956 287.67 219.107" stroke="white" stroke-width="0.5"/>
<path d="M138.668 256.358C153.895 246.841 210.124 232.702 217.52 230.527C226.764 227.808 259.121 212.581 262.927 209.047" stroke="white" stroke-width="0.5"/>
<path d="M138.398 256.358C149.275 251.191 176.03 239.119 196.042 232.158C221.057 223.457 247.703 207.959 251.238 204.696" stroke="white" stroke-width="0.5"/>
<path d="M138.125 257.173C150.27 250.466 176.572 235.965 184.62 231.615C194.681 226.176 232.203 204.968 239.001 199.53" stroke="white" stroke-width="0.5"/>
<path d="M138.398 256.901C145.921 252.188 163.468 240.261 173.474 230.255C185.981 217.747 212.9 199.53 225.679 194.092" stroke="white" stroke-width="0.5"/>
<path d="M137.312 256.63C143.204 253.367 157.325 243.959 166.678 232.43C178.37 218.019 202.297 195.18 213.445 189.198" stroke="white" stroke-width="0.5"/>
<path d="M138.668 256.086C142.837 253.911 153.024 246.406 160.42 233.79C169.665 218.019 180.813 194.364 200.934 185.119" stroke="white" stroke-width="0.5"/>
<path d="M137.582 257.173C141.57 254.454 151.286 245.427 158.247 231.071C166.948 213.125 167.219 198.986 188.156 180.225" stroke="white" stroke-width="0.5"/>
<path d="M138.398 256.358C142.205 255.904 151.287 248.146 157.16 220.738C164.501 186.479 158.791 193.82 175.921 175.603" stroke="white" stroke-width="0.5"/>
<path d="M175.105 271.584C185.256 259.711 196.042 232.267 157.975 217.476C110.393 198.986 79.3957 174.243 113.383 151.675" stroke="white" stroke-width="0.5"/>
<path d="M175.377 271.312C186.435 259.983 200.012 233.409 165.861 217.748C123.172 198.171 116.512 210.149 92.1753 184.575C76.1326 167.717 99.7885 146.509 100.604 145.965" stroke="white" stroke-width="0.5"/>
<path d="M175.105 271.584C184.169 262.611 197.728 239.609 179.456 219.379C156.616 194.092 89.7283 201.161 71.5108 186.479C53.2933 171.796 39.6979 149.772 63.6254 131.826" stroke="white" stroke-width="0.5"/>
<path d="M175.105 271.04C182.719 264.696 199.414 250.43 205.287 244.122C212.628 236.237 248.247 205.24 250.966 203.88" stroke="white" stroke-width="0.5"/>
<path d="M175.105 271.04C183.897 264.877 203.764 251.192 212.9 245.753C224.32 238.956 252.054 222.642 262.93 209.047" stroke="white" stroke-width="0.5"/>
<path d="M175.648 271.856C177.189 268.775 186.035 260.273 209.092 250.92C237.914 239.228 273.261 218.291 276.252 213.669" stroke="white" stroke-width="0.5"/>
<path d="M174.832 270.768C182.083 265.059 203.056 252.279 228.941 246.841C254.826 241.403 279.061 225.723 287.943 218.563" stroke="white" stroke-width="0.5"/>
<path d="M175.922 271.312C178.641 266.418 192.182 255.433 224.592 250.648C265.106 244.666 291.752 231.614 300.453 224.001" stroke="white" stroke-width="0.5"/>
<path d="M23.3828 288.714C27.7333 281.645 43.2861 268.484 70.6938 272.4C104.954 277.294 122.355 276.478 144.379 260.436" stroke="white" stroke-width="0.5"/>
<path d="M23.6523 288.714C27.0964 281.735 42.0645 268.509 67.1567 270.225C98.9693 272.4 126.975 266.962 137.308 257.989" stroke="white" stroke-width="0.5"/>
<path d="M23.3828 288.442C27.0082 282.37 41.0021 269.953 67.9748 268.865C101.691 267.506 116.917 263.699 130.512 255.27" stroke="white" stroke-width="0.5"/>
<path d="M23.3828 288.714C26.0112 283.729 37.7936 272.672 63.8963 268.321C96.5246 262.883 112.295 258.805 122.627 252.279" stroke="white" stroke-width="0.5"/>
<path d="M23.3828 288.714C26.6456 284.182 38.1743 273.759 58.1863 268.321C83.2014 261.524 107.944 252.823 115.286 249.56" stroke="white" stroke-width="0.5"/>
<path d="M23.9258 287.898C29.2732 282.642 43.4484 271.04 57.3698 266.69C74.7715 261.252 105.497 247.657 107.944 246.569" stroke="white" stroke-width="0.5"/>
<path d="M23.6523 288.986C26.3714 284.908 36.4318 274.63 54.9211 266.146C78.0328 255.542 98.9693 244.666 101.145 243.85" stroke="white" stroke-width="0.5"/>
<path d="M23.9258 288.17C28.6388 282.46 42.6871 268.865 61.1764 260.164C84.2881 249.288 91.9014 240.587 93.2609 240.587" stroke="white" stroke-width="0.5"/>
<path d="M23.3828 288.17C30.7242 280.557 47.3646 263.971 55.1954 258.533C64.9839 251.735 78.579 240.044 85.9204 237.868" stroke="white" stroke-width="0.5"/>
<path d="M23.3828 288.714C28.8209 282.098 42.0897 266.364 51.6607 256.358C63.6244 243.85 74.5005 235.421 78.579 234.877" stroke="white" stroke-width="0.5"/>
<path d="M23.3828 288.442C27.0988 283.639 35.9447 271.856 41.6003 263.155C48.6697 252.279 60.9054 234.877 71.7815 231.886" stroke="white" stroke-width="0.5"/>
<path d="M23.3828 288.17C26.2831 285.089 33.3344 276.098 38.3375 264.787C44.5912 250.648 49.7574 235.421 63.6244 229.167" stroke="white" stroke-width="0.5"/>
<path d="M23.3828 288.17C26.6456 285.451 34.2045 275.663 38.3375 258.261C43.5036 236.509 49.7574 228.624 56.283 226.72" stroke="white" stroke-width="0.5"/>
<path d="M23.3828 288.442C26.555 285.27 33.2801 275.772 34.8027 263.155C36.706 247.385 35.6184 231.615 49.2136 223.729" stroke="white" stroke-width="0.5"/>
<path d="M23.9258 288.442C27.8231 285.179 34.965 274.466 32.3548 257.717C29.0919 236.781 33.4424 223.457 42.4152 220.738" stroke="white" stroke-width="0.5"/>
<path d="M23.3828 287.898C27.1894 286.176 34.5014 277.205 29.0928 256.086C23.3828 233.79 23.9266 227.264 34.5308 217.748" stroke="white" stroke-width="0.5"/>
<path d="M23.3828 288.442C27.0988 280.648 42.6879 266.907 75.3162 274.303C116.102 283.548 141.66 272.4 152.537 263.971" stroke="white" stroke-width="0.5"/>
<path d="M23.1094 288.714C27.3692 281.463 42.8495 268.321 70.6923 273.759C105.496 280.557 122.354 290.617 159.333 266.418" stroke="white" stroke-width="0.5"/>
<path d="M23.3809 288.714C26.9156 284.907 32.0818 272.998 24.4685 255.814C14.9519 234.334 15.4957 221.826 26.9156 215.028" stroke="white" stroke-width="0.5"/>
<path d="M23.1094 288.442C28.5474 279.741 47.8525 265.439 81.5684 277.838C123.713 293.336 153.351 281.373 166.674 269.409" stroke="white" stroke-width="0.5"/>
<path d="M23.3828 288.442C30.5429 279.832 48.6697 265.602 83.4733 279.469C122.611 295.063 153.896 291.161 174.833 272.128" stroke="white" stroke-width="0.5"/>
<path d="M173.473 271.857V269.137L176.192 270.225V272.945L173.473 271.857Z" fill="white"/>
<path d="M22.6743 288.95L22.5781 287.788L23.7011 288.163L23.7972 289.325L22.6743 288.95Z" fill="white"/>
<path d="M20.4126 288.046L20.3164 286.884L21.4393 287.259L21.5355 288.421L20.4126 288.046Z" fill="white"/>
<path d="M18.1548 287.141L18.0586 285.979L19.1815 286.354L19.2777 287.516L18.1548 287.141Z" fill="white"/>
<path d="M15.9048 286.237L15.8086 285.075L16.9315 285.45L17.0277 286.612L15.9048 286.237Z" fill="white"/>
<path d="M13.6391 285.332L13.543 284.17L14.6659 284.545L14.7621 285.707L13.6391 285.332Z" fill="white"/>
<path d="M11.3852 284.428L11.2891 283.266L12.412 283.641L12.5082 284.803L11.3852 284.428Z" fill="white"/>
<path d="M9.12742 283.523L9.03125 282.361L10.1542 282.736L10.2504 283.898L9.12742 283.523Z" fill="white"/>
<path d="M6.8657 282.619L6.76953 281.457L7.89247 281.832L7.98863 282.994L6.8657 282.619Z" fill="white"/>
<path d="M4.61179 281.714L4.51562 280.552L5.63856 280.927L5.73473 282.089L4.61179 281.714Z" fill="white"/>
<path d="M2.35398 280.81L2.25781 279.648L3.38075 280.023L3.47691 281.185L2.35398 280.81Z" fill="white"/>
<path d="M0.0961657 279.905L0 278.743L1.12293 279.118L1.2191 280.28L0.0961657 279.905Z" fill="white"/>
<path d="M45.2446 297.995L45.1484 296.833L46.2714 297.208L46.3675 298.37L45.2446 297.995Z" fill="white"/>
<path d="M42.9868 297.091L42.8906 295.929L44.0136 296.304L44.1097 297.466L42.9868 297.091Z" fill="white"/>
<path d="M40.7329 296.186L40.6367 295.024L41.7597 295.399L41.8558 296.561L40.7329 296.186Z" fill="white"/>
<path d="M38.4751 295.282L38.3789 294.12L39.5018 294.495L39.598 295.657L38.4751 295.282Z" fill="white"/>
<path d="M36.2173 294.377L36.1211 293.215L37.244 293.59L37.3402 294.752L36.2173 294.377Z" fill="white"/>
<path d="M24.9243 289.855L24.8281 288.693L25.9511 289.068L26.0472 290.23L24.9243 289.855Z" fill="white"/>
<path d="M27.186 290.759L27.0898 289.597L28.2128 289.972L28.3089 291.134L27.186 290.759Z" fill="white"/>
<path d="M29.4477 291.664L29.3516 290.502L30.4745 290.877L30.5707 292.039L29.4477 291.664Z" fill="white"/>
<path d="M31.6977 292.568L31.6016 291.406L32.7245 291.781L32.8207 292.943L31.6977 292.568Z" fill="white"/>
<path d="M33.9634 293.473L33.8672 292.311L34.9901 292.686L35.0863 293.848L33.9634 293.473Z" fill="white"/>
<path d="M311.055 227.809V222.642L315.134 224.273V229.44L311.055 227.809Z" fill="white"/>
<path d="M452.988 159.017V150.859L460.602 153.579V162.009L452.988 159.017Z" fill="white"/>
<path d="M430.152 150.316V142.159L437.766 144.878V153.308L430.152 150.316Z" fill="white"/>
<path d="M406.766 141.616V133.458L414.38 136.177V144.607L406.766 141.616Z" fill="white"/>
<path d="M383.922 133.458V125.301L391.536 128.02V136.45L383.922 133.458Z" fill="white"/>
<path d="M361.086 125.301V117.144L368.7 119.863V128.293L361.086 125.301Z" fill="white"/>
<path d="M338.242 116.601V108.443L345.856 111.162V119.592L338.242 116.601Z" fill="white"/>
<path d="M315.406 108.443V100.286L323.02 103.005V111.435L315.406 108.443Z" fill="white"/>
<path d="M292.57 100.286V92.1286L300.184 94.8479V103.278L292.57 100.286Z" fill="white"/>
<path d="M269.184 91.5856V83.4277L276.798 86.147V94.5768L269.184 91.5856Z" fill="white"/>
<path d="M246.34 83.4285V75.2706L253.954 77.9899V86.4197L246.34 83.4285Z" fill="white"/>
<path d="M223.504 74.7276V66.5698L231.118 69.289V77.7188L223.504 74.7276Z" fill="white"/>
<path d="M200.66 66.5705V58.4127L208.274 61.1319V69.5617L200.66 66.5705Z" fill="white"/>
<path d="M177.281 57.8696V49.7118L184.895 52.4311V60.8608L177.281 57.8696Z" fill="white"/>
<path d="M154.441 49.7125V41.5547L162.055 44.274V52.7037L154.441 49.7125Z" fill="white"/>
<path d="M131.055 41.0116V32.8538L138.669 35.5731V44.0028L131.055 41.0116Z" fill="white"/>
<path d="M108.758 32.8545V24.6967L116.372 27.416V35.8457L108.758 32.8545Z" fill="white"/>
<path d="M85.9219 24.1537V15.9958L93.5358 18.7151V27.1449L85.9219 24.1537Z" fill="white"/>
<path d="M531.609 129.483L531.607 129.402C531.578 128.086 532.861 127.138 534.11 127.553C534.874 127.807 535.396 128.513 535.414 129.317L535.415 129.398C535.445 130.739 534.116 131.69 532.856 131.227C532.121 130.957 531.627 130.265 531.609 129.483Z" fill="white"/>
<path d="M508.586 121.295L508.584 121.215C508.554 119.899 509.838 118.951 511.087 119.365C511.851 119.619 512.372 120.325 512.39 121.13L512.392 121.21C512.422 122.551 511.092 123.502 509.833 123.04C509.098 122.77 508.603 122.078 508.586 121.295Z" fill="white"/>
<path d="M485.008 113.12L485.006 113.039C484.976 111.723 486.26 110.775 487.509 111.19C488.272 111.444 488.794 112.15 488.812 112.954L488.814 113.035C488.844 114.376 487.514 115.327 486.254 114.864C485.52 114.594 485.025 113.902 485.008 113.12Z" fill="white"/>
<path d="M461.992 105.476L461.99 105.395C461.961 104.079 463.244 103.131 464.493 103.546C465.257 103.8 465.778 104.506 465.796 105.31L465.798 105.391C465.828 106.732 464.498 107.683 463.239 107.22C462.504 106.95 462.009 106.258 461.992 105.476Z" fill="white"/>
<path d="M438.976 97.8318L438.975 97.7513C438.945 96.4352 440.228 95.4871 441.478 95.9021C442.241 96.1556 442.763 96.8618 442.781 97.6661L442.783 97.7466C442.813 99.088 441.483 100.039 440.223 99.5762C439.489 99.3063 438.994 98.6143 438.976 97.8318Z" fill="white"/>
<path d="M415.953 89.6442L415.951 89.5637C415.922 88.2475 417.205 87.2995 418.454 87.7144C419.218 87.968 419.739 88.6742 419.757 89.4785L419.759 89.559C419.789 90.9004 418.459 91.8511 417.2 91.3885C416.465 91.1187 415.97 90.4267 415.953 89.6442Z" fill="white"/>
<path d="M392.933 82.0001L392.932 81.9196C392.902 80.6035 394.185 79.6555 395.435 80.0704C396.198 80.324 396.72 81.0301 396.738 81.8344L396.74 81.9149C396.77 83.2564 395.44 84.207 394.18 83.7445C393.446 83.4747 392.951 82.7826 392.933 82.0001Z" fill="white"/>
<path d="M369.918 74.3562L369.916 74.2757C369.886 72.9596 371.17 72.0116 372.419 72.4265C373.183 72.68 373.704 73.3862 373.722 74.1905L373.724 74.271C373.754 75.6124 372.424 76.5631 371.165 76.1006C370.43 75.8307 369.935 75.1387 369.918 74.3562Z" fill="white"/>
<path d="M346.343 66.1807L346.342 66.1001C346.312 64.784 347.596 63.836 348.845 64.2509C349.608 64.5045 350.13 65.2107 350.148 66.015L350.15 66.0955C350.18 67.4369 348.85 68.3876 347.59 67.925C346.856 67.6552 346.361 66.9632 346.343 66.1807Z" fill="white"/>
<path d="M323.324 58.5367L323.322 58.4562C323.293 57.1401 324.576 56.192 325.825 56.6069C326.589 56.8605 327.111 57.5667 327.129 58.371L327.13 58.4515C327.16 59.7929 325.83 60.7436 324.571 60.2811C323.836 60.0112 323.341 59.3192 323.324 58.5367Z" fill="white"/>
<path d="M300.297 50.3491L300.295 50.2685C300.265 48.9524 301.549 48.0044 302.798 48.4193C303.561 48.6729 304.083 49.379 304.101 50.1834L304.103 50.2639C304.133 51.6053 302.803 52.556 301.544 52.0934C300.809 51.8236 300.314 51.1316 300.297 50.3491Z" fill="white"/>
<path d="M277.277 42.7051L277.275 42.6246C277.246 41.3085 278.529 40.3604 279.778 40.7753C280.542 41.0289 281.064 41.7351 281.082 42.5394L281.083 42.6199C281.113 43.9613 279.784 44.912 278.524 44.4494C277.789 44.1796 277.295 43.4876 277.277 42.7051Z" fill="white"/>
<path d="M253.711 34.5296L253.709 34.4491C253.679 33.133 254.963 32.185 256.212 32.5999C256.976 32.8534 257.497 33.5596 257.515 34.3639L257.517 34.4444C257.547 35.7858 256.217 36.7365 254.958 36.274C254.223 36.0041 253.728 35.3121 253.711 34.5296Z" fill="white"/>
<path d="M230.687 26.8856L230.685 26.8051C230.656 25.489 231.939 24.541 233.189 24.9559C233.952 25.2095 234.474 25.9156 234.492 26.7199L234.494 26.8004C234.524 28.1418 233.194 29.0925 231.934 28.63C231.199 28.3602 230.705 27.6681 230.687 26.8856Z" fill="white"/>
<path d="M207.121 18.7101L207.119 18.6296C207.09 17.3135 208.373 16.3654 209.622 16.7803C210.386 17.0339 210.907 17.7401 210.925 18.5444L210.927 18.6249C210.957 19.9663 209.627 20.917 208.368 20.4545C207.633 20.1846 207.138 19.4926 207.121 18.7101Z" fill="white"/>
<path d="M184.644 11.054L184.642 10.9734C184.613 9.65734 185.896 8.70931 187.146 9.12422C187.909 9.37779 188.431 10.0839 188.449 10.8883L188.451 10.9688C188.481 12.3102 187.151 13.2609 185.891 12.7983C185.156 12.5285 184.662 11.8365 184.644 11.054Z" fill="white"/>
<path d="M161.617 2.86628L161.615 2.78576C161.586 1.46965 162.869 0.521623 164.118 0.936538C164.882 1.1901 165.403 1.89626 165.421 2.70057L165.423 2.78109C165.453 4.1225 164.123 5.07319 162.864 4.61064C162.129 4.34082 161.634 3.64878 161.617 2.86628Z" fill="white"/>
<path d="M298.551 222.914V217.748L302.63 219.379V224.546L298.551 222.914Z" fill="white"/>
<path d="M286.582 218.02V212.853L290.661 214.485V219.652L286.582 218.02Z" fill="white"/>
<path d="M274.078 213.126V207.959L278.157 209.591V214.757L274.078 213.126Z" fill="white"/>
<path d="M261.566 208.232V203.065L265.645 204.696V209.863L261.566 208.232Z" fill="white"/>
<path d="M249.605 203.881V198.714L253.685 200.346V205.513L249.605 203.881Z" fill="white"/>
<path d="M237.102 198.443V193.276L241.181 194.908V200.075L237.102 198.443Z" fill="white"/>
<path d="M224.594 193.549V188.382L228.673 190.014V195.181L224.594 193.549Z" fill="white"/>
<path d="M212.086 188.655V183.488L216.165 185.119V190.286L212.086 188.655Z" fill="white"/>
<path d="M199.578 184.848V179.681L203.657 181.313V186.48L199.578 184.848Z" fill="white"/>
<path d="M187.07 179.954V174.787L191.149 176.419V181.585L187.07 179.954Z" fill="white"/>
<path d="M175.105 175.06V169.893L179.185 171.524V176.691L175.105 175.06Z" fill="white"/>
<path d="M163.141 170.165V164.998L167.22 166.63V171.797L163.141 170.165Z" fill="white"/>
<path d="M150.09 165.271V160.104L154.169 161.736V166.903L150.09 165.271Z" fill="white"/>
<path d="M137.582 160.377V155.21L141.661 156.842V162.008L137.582 160.377Z" fill="white"/>
<path d="M125.617 155.483V150.316L129.696 151.947V157.114L125.617 155.483Z" fill="white"/>
<path d="M113.109 150.588V145.421L117.188 147.053V152.22L113.109 150.588Z" fill="white"/>
<path d="M100.602 145.694V140.527L104.681 142.159V147.326L100.602 145.694Z" fill="white"/>
<path d="M88.0938 140.8V135.633L92.1728 137.265V142.431L88.0938 140.8Z" fill="white"/>
<path d="M75.5859 136.993V131.826L79.665 133.458V138.625L75.5859 136.993Z" fill="white"/>
<path d="M63.0781 131.555V126.388L67.1572 128.02V133.187L63.0781 131.555Z" fill="white"/>
<path d="M165.855 268.866V266.146L168.575 267.234V269.954L165.855 268.866Z" fill="white"/>
<path d="M158.789 266.147V263.427L161.509 264.515V267.235L158.789 266.147Z" fill="white"/>
<path d="M151.723 263.428V260.708L154.442 261.796V264.516L151.723 263.428Z" fill="white"/>
<path d="M144.109 260.165V257.445L146.829 258.533V261.253L144.109 260.165Z" fill="white"/>
<path d="M137.043 257.446V254.726L139.763 255.814V258.534L137.043 257.446Z" fill="white"/>
<path d="M129.973 254.727V252.007L132.692 253.095V255.815L129.973 254.727Z" fill="white"/>
<path d="M122.355 251.464V248.744L125.075 249.832V252.552L122.355 251.464Z" fill="white"/>
<path d="M114.746 248.745V246.025L117.466 247.113V249.833L114.746 248.745Z" fill="white"/>
<path d="M107.672 246.026V243.306L110.392 244.394V247.114L107.672 246.026Z" fill="white"/>
<path d="M100.602 243.307V240.587L103.321 241.675V244.395L100.602 243.307Z" fill="white"/>
<path d="M92.9922 240.044V237.325L95.7119 238.412V241.132L92.9922 240.044Z" fill="white"/>
<path d="M85.375 237.325V234.605L88.0948 235.693V238.413L85.375 237.325Z" fill="white"/>
<path d="M78.3047 234.606V231.886L81.0244 232.974V235.694L78.3047 234.606Z" fill="white"/>
<path d="M71.2344 231.887V229.167L73.9541 230.255V232.975L71.2344 231.887Z" fill="white"/>
<path d="M63.625 229.168V226.448L66.3448 227.536V230.256L63.625 229.168Z" fill="white"/>
<path d="M56.0078 225.905V223.186L58.7276 224.273V226.993L56.0078 225.905Z" fill="white"/>
<path d="M48.9414 223.186V220.467L51.6612 221.554V224.274L48.9414 223.186Z" fill="white"/>
<path d="M41.8711 220.467V217.748L44.5909 218.835V221.555L41.8711 220.467Z" fill="white"/>
<path d="M34.2617 217.748V215.028L36.9815 216.116V218.836L34.2617 217.748Z" fill="white"/>
<path d="M26.6484 215.029V212.309L29.3682 213.397V216.117L26.6484 215.029Z" fill="white"/>
<path d="M175.922 270.768C182.176 264.968 202.188 253.04 232.206 251.735C269.728 250.104 298.278 241.403 313.505 227.808" stroke="white" stroke-width="0.5"/>
<path d="M86.4648 236.509C89.2745 236.69 96.6884 232.05 103.867 212.038C112.839 187.023 101.963 174.515 126.706 155.482" stroke="white" stroke-width="0.5"/>
<path d="M313.777 226.992C344.955 211.222 412.424 173.971 432.871 151.131" stroke="white" stroke-width="0.5"/>
<path d="M88.6406 22.5215C102.689 15.9052 137.257 2.83577 163.142 3.48834" stroke="white" stroke-width="0.3"/>
<path d="M88.6406 20.8901C102.689 14.2738 137.257 1.20436 163.142 1.85693" stroke="white" stroke-width="0.3"/>
<path d="M88.6406 21.9777C102.689 15.3614 137.257 2.29195 163.142 2.94451" stroke="white" stroke-width="0.3"/>
<path d="M88.6406 23.6091C102.689 16.9928 137.257 3.92336 163.142 4.57592" stroke="white" stroke-width="0.3"/>
<path d="M88.6406 23.0653C102.689 16.449 137.257 3.37959 163.142 4.03216" stroke="white" stroke-width="0.3"/>
<path d="M112.566 31.4943C126.615 24.3342 161.128 10.3947 186.796 11.9173" stroke="white" stroke-width="0.3"/>
<path d="M112.566 30.4067C126.615 23.2466 161.128 9.30709 186.796 10.8297" stroke="white" stroke-width="0.3"/>
<path d="M112.566 30.9505C126.615 23.7904 161.128 9.85085 186.796 11.3735" stroke="white" stroke-width="0.3"/>
<path d="M112.566 32.5819C126.615 25.4218 161.128 11.4823 186.796 13.0049" stroke="white" stroke-width="0.3"/>
<path d="M112.566 29.8628C126.615 22.7027 161.128 8.7632 186.796 10.2859" stroke="white" stroke-width="0.3"/>
<path d="M135.953 39.9233C148.642 33.3976 180.98 20.0744 208.823 18.9868" stroke="white" stroke-width="0.3"/>
<path d="M135.953 40.4671C148.642 33.9415 180.98 20.6182 208.823 19.5306" stroke="white" stroke-width="0.3"/>
<path d="M135.953 38.8357C148.642 32.31 180.98 18.9868 208.823 17.8992" stroke="white" stroke-width="0.3"/>
<path d="M135.953 41.0109C148.642 34.4852 180.98 21.162 208.823 20.0744" stroke="white" stroke-width="0.3"/>
<path d="M158.789 48.0804C171.84 41.0109 204.741 27.0895 231.931 27.9596" stroke="white" stroke-width="0.3"/>
<path d="M158.789 48.6242C171.84 41.5547 204.741 27.6333 231.931 28.5034" stroke="white" stroke-width="0.3"/>
<path d="M158.789 47.5366C171.84 40.4671 204.741 26.5457 231.931 27.4158" stroke="white" stroke-width="0.3"/>
<path d="M158.789 46.449C171.84 39.3795 204.741 25.4581 231.931 26.3282" stroke="white" stroke-width="0.3"/>
<path d="M180.812 55.6936C192.142 48.171 222.685 35.0291 254.77 35.0291M205.012 65.754C215.979 58.5939 246.341 47.5366 278.697 43.458" stroke="white" stroke-width="0.3"/>
<path d="M180.812 56.2375C192.142 48.7148 222.685 35.5729 254.77 35.5729M205.012 66.2979C215.979 59.1378 246.341 48.0804 278.697 44.0019" stroke="white" stroke-width="0.3"/>
<path d="M180.812 56.7812C192.142 49.2586 222.685 36.1166 254.77 36.1166M205.012 66.8416C215.979 59.6815 246.341 48.6242 278.697 44.5456" stroke="white" stroke-width="0.3"/>
<path d="M180.812 55.1498C192.142 47.6272 222.685 34.4852 254.77 34.4852M205.012 65.2102C215.979 58.0501 246.341 46.9927 278.697 42.9142" stroke="white" stroke-width="0.3"/>
<path d="M180.812 55.1498C192.142 47.6272 222.685 34.4852 254.77 34.4852M205.012 65.2102C215.979 58.0501 246.341 46.9927 278.697 42.9142" stroke="white" stroke-width="0.3"/>
<path d="M227.312 72.5516C243.355 65.5728 280.714 51.5607 301.814 51.3432" stroke="white" stroke-width="0.3"/>
<path d="M227.312 72.0078C243.355 65.0289 280.714 51.0169 301.814 50.7994" stroke="white" stroke-width="0.3"/>
<path d="M227.312 73.0954C243.355 66.1165 280.714 52.1045 301.814 51.887" stroke="white" stroke-width="0.3"/>
<path d="M227.312 70.9202C243.355 63.9414 280.714 49.9293 301.814 49.7118" stroke="white" stroke-width="0.3"/>
<path d="M249.332 81.5244C266.281 73.9111 305.235 58.7933 325.465 59.2284" stroke="white" stroke-width="0.3"/>
<path d="M249.332 82.0682C266.281 74.4549 305.235 59.3371 325.465 59.7722" stroke="white" stroke-width="0.3"/>
<path d="M249.332 80.4368C266.281 72.8235 305.235 57.7057 325.465 58.1408" stroke="white" stroke-width="0.3"/>
<path d="M249.332 82.612C266.281 74.9987 305.235 59.8809 325.465 60.316" stroke="white" stroke-width="0.3"/>
<path d="M272.449 89.4095C289.579 81.8869 328.624 66.9504 347.766 67.3854" stroke="white" stroke-width="0.3"/>
<path d="M272.449 88.8657C289.579 81.3431 328.624 66.4066 347.766 66.8416" stroke="white" stroke-width="0.3"/>
<path d="M272.449 87.7781C289.579 80.2555 328.624 65.3189 347.766 65.754" stroke="white" stroke-width="0.3"/>
<path d="M272.449 88.3219C289.579 80.7993 328.624 65.8628 347.766 66.2978" stroke="white" stroke-width="0.3"/>
<path d="M295.559 98.1105C313.232 90.5878 353.093 75.5425 371.147 75.5425" stroke="white" stroke-width="0.3"/>
<path d="M295.559 97.5666C313.232 90.044 353.093 74.9987 371.147 74.9987" stroke="white" stroke-width="0.3"/>
<path d="M295.559 96.479C313.232 88.9564 353.093 73.9111 371.147 73.9111" stroke="white" stroke-width="0.3"/>
<path d="M295.559 95.9352C313.232 88.4126 353.093 73.3673 371.147 73.3673" stroke="white" stroke-width="0.3"/>
<path d="M318.941 107.083C334.349 99.47 370.984 83.9171 394.258 82.612" stroke="white" stroke-width="0.3"/>
<path d="M318.941 106.539C334.349 98.9262 370.984 83.3734 394.258 82.0682" stroke="white" stroke-width="0.3"/>
<path d="M318.941 105.996C334.349 98.3824 370.984 82.8295 394.258 81.5244" stroke="white" stroke-width="0.3"/>
<path d="M318.941 108.171C334.349 100.558 370.984 85.0048 394.258 83.6996" stroke="white" stroke-width="0.3"/>
<path d="M340.422 115.24C357.552 106.902 396.814 90.2796 416.826 90.4972" stroke="white" stroke-width="0.3"/>
<path d="M340.422 115.784C357.552 107.446 396.814 90.8234 416.826 91.0409" stroke="white" stroke-width="0.3"/>
<path d="M340.422 114.153C357.552 105.814 396.814 89.192 416.826 89.4095" stroke="white" stroke-width="0.3"/>
<path d="M340.422 113.609C357.552 105.271 396.814 88.6482 416.826 88.8658" stroke="white" stroke-width="0.3"/>
<path d="M364.895 123.669C380.846 115.422 418.351 98.9261 440.755 98.9261" stroke="white" stroke-width="0.3"/>
<path d="M364.895 123.125C380.846 114.878 418.351 98.3823 440.755 98.3823" stroke="white" stroke-width="0.3"/>
<path d="M364.895 122.582C380.846 114.334 418.351 97.8386 440.755 97.8386" stroke="white" stroke-width="0.3"/>
<path d="M364.895 121.494C380.846 113.246 418.351 96.7509 440.755 96.7509" stroke="white" stroke-width="0.3"/>
<path d="M386.371 132.37C402.776 123.76 440.969 106.594 462.504 106.811" stroke="white" stroke-width="0.3"/>
<path d="M386.371 131.826C402.776 123.216 440.969 106.05 462.504 106.268" stroke="white" stroke-width="0.3"/>
<path d="M386.371 132.37C402.776 123.76 440.969 106.594 462.504 106.811" stroke="white" stroke-width="0.3"/>
<path d="M386.371 130.739C402.776 122.128 440.969 104.962 462.504 105.18" stroke="white" stroke-width="0.3"/>
<path d="M386.371 130.195C402.776 121.585 440.969 104.419 462.504 104.636" stroke="white" stroke-width="0.3"/>
<path d="M410.844 138.896C427.339 130.739 466.149 113.935 486.161 114.153" stroke="white" stroke-width="0.3"/>
<path d="M410.844 138.352C427.339 130.195 466.149 113.391 486.161 113.609" stroke="white" stroke-width="0.3"/>
<path d="M410.844 137.264C427.339 129.107 466.149 112.304 486.161 112.521" stroke="white" stroke-width="0.3"/>
<path d="M410.844 136.721C427.339 128.564 466.149 111.76 486.161 111.977" stroke="white" stroke-width="0.3"/>
<path d="M433.141 148.412C449.545 139.983 487.793 122.908 509.545 122.038" stroke="white" stroke-width="0.3"/>
<path d="M433.141 147.869C449.545 139.44 487.793 122.364 509.545 121.494" stroke="white" stroke-width="0.3"/>
<path d="M433.141 147.325C449.545 138.896 487.793 121.82 509.545 120.95" stroke="white" stroke-width="0.3"/>
<path d="M433.141 146.781C449.545 138.352 487.793 121.277 509.545 120.406" stroke="white" stroke-width="0.3"/>
<path d="M456.797 157.113C472.295 149.137 509.274 132.642 533.201 130.467" stroke="white" stroke-width="0.3"/>
<path d="M456.797 156.569C472.295 148.594 509.274 132.098 533.201 129.923" stroke="white" stroke-width="0.3"/>
<path d="M456.797 157.113C472.295 149.137 509.274 132.642 533.201 130.467" stroke="white" stroke-width="0.3"/>
<path d="M456.797 154.938C472.295 146.962 509.274 130.467 533.201 128.292" stroke="white" stroke-width="0.3"/>
<path d="M456.797 155.482C472.295 147.506 509.274 131.011 533.201 128.835" stroke="white" stroke-width="0.3"/>
</svg>
